<mxfile host="app.diagrams.net" agent="Mozilla/5.0 (Windows NT 10.0; Win64; x64) AppleWebKit/537.36 (KHTML, like Gecko) Chrome/131.0.0.0 Safari/537.36" version="24.9.1" pages="2">
  <diagram name="Page-1" id="pDGeJCEjxCH2YnQQcYUn">
    <mxGraphModel dx="1118" dy="1331" grid="1" gridSize="10" guides="1" tooltips="1" connect="1" arrows="1" fold="1" page="1" pageScale="1" pageWidth="850" pageHeight="1100" math="0" shadow="0">
      <root>
        <mxCell id="0" />
        <mxCell id="1" parent="0" />
        <mxCell id="UsypLISzVPM1GwDdfIIj-1" style="edgeStyle=orthogonalEdgeStyle;rounded=0;orthogonalLoop=1;jettySize=auto;html=1;exitX=0.5;exitY=1;exitDx=0;exitDy=0;" edge="1" parent="1">
          <mxGeometry relative="1" as="geometry">
            <mxPoint x="392.5" y="120" as="sourcePoint" />
            <mxPoint x="392.5" y="120" as="targetPoint" />
          </mxGeometry>
        </mxCell>
        <mxCell id="UsypLISzVPM1GwDdfIIj-13" value="" style="edgeStyle=orthogonalEdgeStyle;rounded=0;orthogonalLoop=1;jettySize=auto;html=1;" edge="1" parent="1" source="UsypLISzVPM1GwDdfIIj-11" target="UsypLISzVPM1GwDdfIIj-12">
          <mxGeometry relative="1" as="geometry" />
        </mxCell>
        <mxCell id="UsypLISzVPM1GwDdfIIj-11" value="&lt;h1&gt;START&lt;/h1&gt;" style="rounded=0;whiteSpace=wrap;html=1;" vertex="1" parent="1">
          <mxGeometry x="340" y="60" width="120" height="60" as="geometry" />
        </mxCell>
        <mxCell id="UsypLISzVPM1GwDdfIIj-16" value="" style="edgeStyle=orthogonalEdgeStyle;rounded=0;orthogonalLoop=1;jettySize=auto;html=1;" edge="1" parent="1" source="UsypLISzVPM1GwDdfIIj-12" target="UsypLISzVPM1GwDdfIIj-14">
          <mxGeometry relative="1" as="geometry" />
        </mxCell>
        <mxCell id="UsypLISzVPM1GwDdfIIj-12" value="Prompt&lt;div&gt;&quot;enter password&quot;&lt;/div&gt;" style="rounded=0;whiteSpace=wrap;html=1;" vertex="1" parent="1">
          <mxGeometry x="340" y="160" width="120" height="60" as="geometry" />
        </mxCell>
        <mxCell id="UsypLISzVPM1GwDdfIIj-18" value="" style="edgeStyle=orthogonalEdgeStyle;rounded=0;orthogonalLoop=1;jettySize=auto;html=1;" edge="1" parent="1" source="UsypLISzVPM1GwDdfIIj-14" target="UsypLISzVPM1GwDdfIIj-17">
          <mxGeometry relative="1" as="geometry" />
        </mxCell>
        <mxCell id="UsypLISzVPM1GwDdfIIj-14" value="input password" style="shape=parallelogram;perimeter=parallelogramPerimeter;whiteSpace=wrap;html=1;fixedSize=1;" vertex="1" parent="1">
          <mxGeometry x="340" y="280" width="120" height="60" as="geometry" />
        </mxCell>
        <mxCell id="UsypLISzVPM1GwDdfIIj-20" value="" style="edgeStyle=orthogonalEdgeStyle;rounded=0;orthogonalLoop=1;jettySize=auto;html=1;" edge="1" parent="1" source="UsypLISzVPM1GwDdfIIj-17" target="UsypLISzVPM1GwDdfIIj-19">
          <mxGeometry relative="1" as="geometry" />
        </mxCell>
        <mxCell id="UsypLISzVPM1GwDdfIIj-22" value="" style="edgeStyle=orthogonalEdgeStyle;rounded=0;orthogonalLoop=1;jettySize=auto;html=1;" edge="1" parent="1" source="UsypLISzVPM1GwDdfIIj-17" target="UsypLISzVPM1GwDdfIIj-21">
          <mxGeometry relative="1" as="geometry" />
        </mxCell>
        <mxCell id="UsypLISzVPM1GwDdfIIj-17" value="Is password ccorrect?" style="rhombus;whiteSpace=wrap;html=1;" vertex="1" parent="1">
          <mxGeometry x="345" y="400" width="110" height="110" as="geometry" />
        </mxCell>
        <mxCell id="UsypLISzVPM1GwDdfIIj-29" value="" style="edgeStyle=orthogonalEdgeStyle;rounded=0;orthogonalLoop=1;jettySize=auto;html=1;" edge="1" parent="1" source="UsypLISzVPM1GwDdfIIj-19" target="UsypLISzVPM1GwDdfIIj-32">
          <mxGeometry relative="1" as="geometry">
            <mxPoint x="625" y="540" as="targetPoint" />
          </mxGeometry>
        </mxCell>
        <mxCell id="UsypLISzVPM1GwDdfIIj-19" value="yes" style="ellipse;whiteSpace=wrap;html=1;" vertex="1" parent="1">
          <mxGeometry x="565" y="422.5" width="70" height="65" as="geometry" />
        </mxCell>
        <mxCell id="UsypLISzVPM1GwDdfIIj-21" value="no" style="ellipse;whiteSpace=wrap;html=1;" vertex="1" parent="1">
          <mxGeometry x="170" y="421.25" width="70" height="67.5" as="geometry" />
        </mxCell>
        <mxCell id="UsypLISzVPM1GwDdfIIj-37" value="" style="edgeStyle=orthogonalEdgeStyle;rounded=0;orthogonalLoop=1;jettySize=auto;html=1;" edge="1" parent="1" source="UsypLISzVPM1GwDdfIIj-32" target="UsypLISzVPM1GwDdfIIj-36">
          <mxGeometry relative="1" as="geometry" />
        </mxCell>
        <mxCell id="UsypLISzVPM1GwDdfIIj-32" value="Menu:&amp;nbsp;&lt;div&gt;[a] [b] [c]&lt;/div&gt;" style="rhombus;whiteSpace=wrap;html=1;" vertex="1" parent="1">
          <mxGeometry x="537.5" y="560" width="125" height="130" as="geometry" />
        </mxCell>
        <mxCell id="UsypLISzVPM1GwDdfIIj-41" value="" style="edgeStyle=orthogonalEdgeStyle;rounded=0;orthogonalLoop=1;jettySize=auto;html=1;" edge="1" parent="1" source="UsypLISzVPM1GwDdfIIj-34" target="UsypLISzVPM1GwDdfIIj-40">
          <mxGeometry relative="1" as="geometry" />
        </mxCell>
        <mxCell id="UsypLISzVPM1GwDdfIIj-34" value="[A] or [a]" style="shape=parallelogram;perimeter=parallelogramPerimeter;whiteSpace=wrap;html=1;fixedSize=1;" vertex="1" parent="1">
          <mxGeometry x="210" y="720" width="120" height="60" as="geometry" />
        </mxCell>
        <mxCell id="UsypLISzVPM1GwDdfIIj-35" style="edgeStyle=orthogonalEdgeStyle;rounded=0;orthogonalLoop=1;jettySize=auto;html=1;entryX=0.592;entryY=-0.033;entryDx=0;entryDy=0;entryPerimeter=0;exitX=0;exitY=1;exitDx=0;exitDy=0;" edge="1" parent="1" source="UsypLISzVPM1GwDdfIIj-32" target="UsypLISzVPM1GwDdfIIj-34">
          <mxGeometry relative="1" as="geometry" />
        </mxCell>
        <mxCell id="UsypLISzVPM1GwDdfIIj-43" value="" style="edgeStyle=orthogonalEdgeStyle;rounded=0;orthogonalLoop=1;jettySize=auto;html=1;" edge="1" parent="1" source="UsypLISzVPM1GwDdfIIj-36" target="UsypLISzVPM1GwDdfIIj-42">
          <mxGeometry relative="1" as="geometry" />
        </mxCell>
        <mxCell id="UsypLISzVPM1GwDdfIIj-36" value="[B] or [b]" style="shape=parallelogram;perimeter=parallelogramPerimeter;whiteSpace=wrap;html=1;fixedSize=1;" vertex="1" parent="1">
          <mxGeometry x="540" y="720" width="120" height="60" as="geometry" />
        </mxCell>
        <mxCell id="UsypLISzVPM1GwDdfIIj-45" value="" style="edgeStyle=orthogonalEdgeStyle;rounded=0;orthogonalLoop=1;jettySize=auto;html=1;" edge="1" parent="1" source="UsypLISzVPM1GwDdfIIj-38" target="UsypLISzVPM1GwDdfIIj-44">
          <mxGeometry relative="1" as="geometry" />
        </mxCell>
        <mxCell id="UsypLISzVPM1GwDdfIIj-38" value="[C] or [c]" style="shape=parallelogram;perimeter=parallelogramPerimeter;whiteSpace=wrap;html=1;fixedSize=1;" vertex="1" parent="1">
          <mxGeometry x="850" y="720" width="120" height="60" as="geometry" />
        </mxCell>
        <mxCell id="UsypLISzVPM1GwDdfIIj-39" style="edgeStyle=orthogonalEdgeStyle;rounded=0;orthogonalLoop=1;jettySize=auto;html=1;entryX=0.608;entryY=0.067;entryDx=0;entryDy=0;entryPerimeter=0;" edge="1" parent="1" source="UsypLISzVPM1GwDdfIIj-32" target="UsypLISzVPM1GwDdfIIj-38">
          <mxGeometry relative="1" as="geometry">
            <Array as="points">
              <mxPoint x="923" y="660" />
            </Array>
          </mxGeometry>
        </mxCell>
        <mxCell id="UsypLISzVPM1GwDdfIIj-47" value="" style="edgeStyle=orthogonalEdgeStyle;rounded=0;orthogonalLoop=1;jettySize=auto;html=1;" edge="1" parent="1" source="UsypLISzVPM1GwDdfIIj-40" target="UsypLISzVPM1GwDdfIIj-46">
          <mxGeometry relative="1" as="geometry" />
        </mxCell>
        <mxCell id="UsypLISzVPM1GwDdfIIj-40" value="Task :1" style="whiteSpace=wrap;html=1;" vertex="1" parent="1">
          <mxGeometry x="210" y="840" width="120" height="60" as="geometry" />
        </mxCell>
        <mxCell id="UsypLISzVPM1GwDdfIIj-42" value="Task: 2" style="whiteSpace=wrap;html=1;" vertex="1" parent="1">
          <mxGeometry x="540" y="840" width="120" height="60" as="geometry" />
        </mxCell>
        <mxCell id="UsypLISzVPM1GwDdfIIj-44" value="Task: 3" style="whiteSpace=wrap;html=1;" vertex="1" parent="1">
          <mxGeometry x="850" y="840" width="120" height="60" as="geometry" />
        </mxCell>
        <mxCell id="UsypLISzVPM1GwDdfIIj-49" value="" style="edgeStyle=orthogonalEdgeStyle;rounded=0;orthogonalLoop=1;jettySize=auto;html=1;" edge="1" parent="1" source="UsypLISzVPM1GwDdfIIj-46">
          <mxGeometry relative="1" as="geometry">
            <mxPoint x="270" y="1080" as="targetPoint" />
          </mxGeometry>
        </mxCell>
        <mxCell id="UsypLISzVPM1GwDdfIIj-46" value="input 2 numbers&lt;div&gt;EX:1 &amp;amp; 40&lt;/div&gt;" style="shape=parallelogram;perimeter=parallelogramPerimeter;whiteSpace=wrap;html=1;fixedSize=1;" vertex="1" parent="1">
          <mxGeometry x="210" y="960" width="120" height="60" as="geometry" />
        </mxCell>
        <mxCell id="UsypLISzVPM1GwDdfIIj-53" value="" style="edgeStyle=orthogonalEdgeStyle;rounded=0;orthogonalLoop=1;jettySize=auto;html=1;" edge="1" parent="1" source="UsypLISzVPM1GwDdfIIj-50" target="UsypLISzVPM1GwDdfIIj-51">
          <mxGeometry relative="1" as="geometry" />
        </mxCell>
        <mxCell id="UsypLISzVPM1GwDdfIIj-50" value="OUTPUT&lt;div&gt;prints triangular numbers&lt;/div&gt;&lt;div&gt;EX; 1, 3, 6, 10, 15, 21, 28,36&lt;/div&gt;" style="shape=parallelogram;perimeter=parallelogramPerimeter;whiteSpace=wrap;html=1;fixedSize=1;" vertex="1" parent="1">
          <mxGeometry x="160" y="1080" width="200" height="80" as="geometry" />
        </mxCell>
        <mxCell id="UsypLISzVPM1GwDdfIIj-60" value="" style="edgeStyle=orthogonalEdgeStyle;rounded=0;orthogonalLoop=1;jettySize=auto;html=1;" edge="1" parent="1" source="UsypLISzVPM1GwDdfIIj-51" target="UsypLISzVPM1GwDdfIIj-59">
          <mxGeometry relative="1" as="geometry" />
        </mxCell>
        <mxCell id="UsypLISzVPM1GwDdfIIj-51" value="counts the amount of numbers that are odd" style="whiteSpace=wrap;html=1;" vertex="1" parent="1">
          <mxGeometry x="100" y="1210" width="140" height="70" as="geometry" />
        </mxCell>
        <mxCell id="UsypLISzVPM1GwDdfIIj-58" value="" style="edgeStyle=orthogonalEdgeStyle;rounded=0;orthogonalLoop=1;jettySize=auto;html=1;" edge="1" parent="1" source="UsypLISzVPM1GwDdfIIj-54" target="UsypLISzVPM1GwDdfIIj-57">
          <mxGeometry relative="1" as="geometry" />
        </mxCell>
        <mxCell id="UsypLISzVPM1GwDdfIIj-54" value="counts the amount of numbers that are even" style="whiteSpace=wrap;html=1;" vertex="1" parent="1">
          <mxGeometry x="300" y="1205" width="140" height="80" as="geometry" />
        </mxCell>
        <mxCell id="UsypLISzVPM1GwDdfIIj-55" style="edgeStyle=orthogonalEdgeStyle;rounded=0;orthogonalLoop=1;jettySize=auto;html=1;entryX=0.567;entryY=0.067;entryDx=0;entryDy=0;entryPerimeter=0;" edge="1" parent="1" source="UsypLISzVPM1GwDdfIIj-50" target="UsypLISzVPM1GwDdfIIj-54">
          <mxGeometry relative="1" as="geometry">
            <Array as="points">
              <mxPoint x="260" y="1183" />
              <mxPoint x="379" y="1183" />
            </Array>
          </mxGeometry>
        </mxCell>
        <mxCell id="UsypLISzVPM1GwDdfIIj-68" style="edgeStyle=orthogonalEdgeStyle;rounded=0;orthogonalLoop=1;jettySize=auto;html=1;" edge="1" parent="1" source="UsypLISzVPM1GwDdfIIj-57">
          <mxGeometry relative="1" as="geometry">
            <mxPoint x="270" y="1410" as="targetPoint" />
            <Array as="points">
              <mxPoint x="370" y="1400" />
              <mxPoint x="270" y="1400" />
            </Array>
          </mxGeometry>
        </mxCell>
        <mxCell id="UsypLISzVPM1GwDdfIIj-57" value="adds the even numbers together&amp;nbsp;" style="whiteSpace=wrap;html=1;" vertex="1" parent="1">
          <mxGeometry x="310" y="1320" width="120" height="60" as="geometry" />
        </mxCell>
        <mxCell id="UsypLISzVPM1GwDdfIIj-65" style="edgeStyle=orthogonalEdgeStyle;rounded=0;orthogonalLoop=1;jettySize=auto;html=1;entryX=0.5;entryY=0;entryDx=0;entryDy=0;" edge="1" parent="1" source="UsypLISzVPM1GwDdfIIj-59" target="UsypLISzVPM1GwDdfIIj-61">
          <mxGeometry relative="1" as="geometry">
            <mxPoint x="170" y="1590" as="targetPoint" />
            <Array as="points">
              <mxPoint x="170" y="1400" />
              <mxPoint x="270" y="1400" />
              <mxPoint x="270" y="1450" />
              <mxPoint x="582" y="1450" />
            </Array>
          </mxGeometry>
        </mxCell>
        <mxCell id="UsypLISzVPM1GwDdfIIj-59" value="adds the odd numbers together&amp;nbsp;" style="whiteSpace=wrap;html=1;" vertex="1" parent="1">
          <mxGeometry x="110" y="1310" width="120" height="60" as="geometry" />
        </mxCell>
        <mxCell id="UsypLISzVPM1GwDdfIIj-70" value="" style="edgeStyle=orthogonalEdgeStyle;rounded=0;orthogonalLoop=1;jettySize=auto;html=1;" edge="1" parent="1" source="UsypLISzVPM1GwDdfIIj-71" target="UsypLISzVPM1GwDdfIIj-69">
          <mxGeometry relative="1" as="geometry" />
        </mxCell>
        <mxCell id="UsypLISzVPM1GwDdfIIj-76" value="" style="edgeStyle=orthogonalEdgeStyle;rounded=0;orthogonalLoop=1;jettySize=auto;html=1;" edge="1" parent="1" source="UsypLISzVPM1GwDdfIIj-61" target="UsypLISzVPM1GwDdfIIj-75">
          <mxGeometry relative="1" as="geometry" />
        </mxCell>
        <mxCell id="UsypLISzVPM1GwDdfIIj-61" value="continue to another task or&amp;nbsp;&lt;div&gt;exit?&lt;/div&gt;" style="rhombus;whiteSpace=wrap;html=1;" vertex="1" parent="1">
          <mxGeometry x="490" y="1500" width="185" height="150" as="geometry" />
        </mxCell>
        <mxCell id="UsypLISzVPM1GwDdfIIj-69" value="&lt;h1&gt;STOP&lt;/h1&gt;" style="rounded=0;whiteSpace=wrap;html=1;" vertex="1" parent="1">
          <mxGeometry x="478.75" y="1800" width="207.5" height="100" as="geometry" />
        </mxCell>
        <mxCell id="UsypLISzVPM1GwDdfIIj-72" value="" style="edgeStyle=orthogonalEdgeStyle;rounded=0;orthogonalLoop=1;jettySize=auto;html=1;" edge="1" parent="1" source="UsypLISzVPM1GwDdfIIj-61" target="UsypLISzVPM1GwDdfIIj-71">
          <mxGeometry relative="1" as="geometry">
            <mxPoint x="582" y="1650" as="sourcePoint" />
            <mxPoint x="583" y="1800" as="targetPoint" />
          </mxGeometry>
        </mxCell>
        <mxCell id="UsypLISzVPM1GwDdfIIj-71" value="exit" style="rounded=0;whiteSpace=wrap;html=1;" vertex="1" parent="1">
          <mxGeometry x="522.5" y="1690" width="120" height="60" as="geometry" />
        </mxCell>
        <mxCell id="UsypLISzVPM1GwDdfIIj-78" value="" style="edgeStyle=orthogonalEdgeStyle;rounded=0;orthogonalLoop=1;jettySize=auto;html=1;" edge="1" parent="1" source="UsypLISzVPM1GwDdfIIj-75" target="UsypLISzVPM1GwDdfIIj-77">
          <mxGeometry relative="1" as="geometry" />
        </mxCell>
        <mxCell id="UsypLISzVPM1GwDdfIIj-75" value="Continue" style="rounded=0;whiteSpace=wrap;html=1;" vertex="1" parent="1">
          <mxGeometry x="310" y="1545" width="120" height="60" as="geometry" />
        </mxCell>
        <mxCell id="UsypLISzVPM1GwDdfIIj-77" value="" style="shape=waypoint;sketch=0;size=6;pointerEvents=1;points=[];fillColor=default;resizable=0;rotatable=0;perimeter=centerPerimeter;snapToPoint=1;rounded=0;" vertex="1" parent="1">
          <mxGeometry x="40" y="1565" width="20" height="20" as="geometry" />
        </mxCell>
        <mxCell id="UsypLISzVPM1GwDdfIIj-83" style="edgeStyle=orthogonalEdgeStyle;rounded=0;orthogonalLoop=1;jettySize=auto;html=1;" edge="1" parent="1" source="UsypLISzVPM1GwDdfIIj-82" target="UsypLISzVPM1GwDdfIIj-32">
          <mxGeometry relative="1" as="geometry">
            <Array as="points">
              <mxPoint x="110" y="625" />
            </Array>
          </mxGeometry>
        </mxCell>
        <mxCell id="UsypLISzVPM1GwDdfIIj-84" value="" style="edgeStyle=orthogonalEdgeStyle;rounded=0;orthogonalLoop=1;jettySize=auto;html=1;" edge="1" parent="1" source="UsypLISzVPM1GwDdfIIj-77" target="UsypLISzVPM1GwDdfIIj-82">
          <mxGeometry relative="1" as="geometry">
            <mxPoint x="50" y="600" as="targetPoint" />
            <mxPoint x="50" y="1575" as="sourcePoint" />
          </mxGeometry>
        </mxCell>
        <mxCell id="UsypLISzVPM1GwDdfIIj-82" value="" style="shape=waypoint;sketch=0;size=6;pointerEvents=1;points=[];fillColor=none;resizable=0;rotatable=0;perimeter=centerPerimeter;snapToPoint=1;" vertex="1" parent="1">
          <mxGeometry x="40" y="615" width="20" height="20" as="geometry" />
        </mxCell>
        <mxCell id="UsypLISzVPM1GwDdfIIj-85" value="Print OUTPUT" style="shape=parallelogram;perimeter=parallelogramPerimeter;whiteSpace=wrap;html=1;fixedSize=1;" vertex="1" parent="1">
          <mxGeometry x="290" y="1420" width="120" height="60" as="geometry" />
        </mxCell>
      </root>
    </mxGraphModel>
  </diagram>
  <diagram id="S7zSaSbKdAM8ZnB8rL30" name="Page-2">
    <mxGraphModel dx="792" dy="1131" grid="1" gridSize="10" guides="1" tooltips="1" connect="1" arrows="1" fold="1" page="1" pageScale="1" pageWidth="850" pageHeight="1100" math="0" shadow="0">
      <root>
        <mxCell id="0" />
        <mxCell id="1" parent="0" />
      </root>
    </mxGraphModel>
  </diagram>
</mxfile>
